<svg xmlns="http://www.w3.org/2000/svg" viewBox="0 0 64 64">
  <rect width="64" height="64" rx="18" fill="#d8f6f3"/>
  <path d="M21 13c-7 0-11 5.4-10.2 13.1.8 7.2 4.8 11.6 6.4 20.5.7 4 2.1 7.4 5 7.4 2.5 0 3.3-3.4 4.1-7 .8-3.8 1.9-7.2 5.7-7.2s4.9 3.4 5.7 7.2c.8 3.6 1.6 7 4.1 7 2.9 0 4.3-3.4 5-7.4 1.6-8.9 5.6-13.3 6.4-20.5C54 18.4 50 13 43 13c-4.3 0-7 2.2-11 2.2S25.3 13 21 13Z" fill="#198887"/>
  <path d="M20.8 19.5c3.9 0 6.8 2.3 11.2 2.3s7.3-2.3 11.2-2.3" fill="none" stroke="#effcfb" stroke-width="4" stroke-linecap="round" opacity=".95"/>
</svg>
